<?xml version="1.0" encoding="UTF-8"?>
<svg version="1.1" xmlns="http://www.w3.org/2000/svg" width="1000" height="1000">
<path d="M0 0 C2.33125603 0.67413317 4.66559512 1.33681679 7 2 C7 2.66 7 3.32 7 4 C7.95261719 4.08636719 8.90523438 4.17273438 9.88671875 4.26171875 C14.83203705 4.9713887 19.22781772 6.89729156 23.8125 8.8125 C24.65103516 9.15603516 25.48957031 9.49957031 26.35351562 9.85351562 C28.0482115 10.54780686 29.74165674 11.24515862 31.43383789 11.94555664 C34.04746269 13.01950255 36.6705514 14.06691151 39.296875 15.109375 C42.71700769 16.47361343 46.09447679 17.89168607 49.4375 19.4375 C50.35144531 19.85773438 51.26539063 20.27796875 52.20703125 20.7109375 C53.58955078 21.34902344 53.58955078 21.34902344 55 22 C56.87438007 22.85552617 58.74937547 23.70970558 60.625 24.5625 C61.53507812 24.97628906 62.44515625 25.39007813 63.3828125 25.81640625 C66.46967042 27.21240319 69.56569486 28.58681452 72.6640625 29.95703125 C76.32794693 31.59291276 79.97205185 33.27204095 83.6171875 34.94921875 C86.07047579 36.07540502 86.07047579 36.07540502 89 37 C89 37.66 89 38.32 89 39 C89.99128906 39.25523437 90.98257812 39.51046875 92.00390625 39.7734375 C96.19569876 40.9710925 100.01983241 42.73344705 103.9375 44.625 C104.62134766 44.94984375 105.30519531 45.2746875 106.00976562 45.609375 C107.67546525 46.40145594 109.3380664 47.2000474 111 48 C111 48.66 111 49.32 111 50 C112.00417969 50.25265625 113.00835938 50.5053125 114.04296875 50.765625 C118.10423038 51.9291933 121.62683207 53.7133101 125.3125 55.75 C125.96331543 56.10271973 126.61413086 56.45543945 127.28466797 56.81884766 C131.89134983 59.33437584 136.40617639 61.98142306 140.8515625 64.7734375 C143.16614117 66.09485151 145.50742687 67.06419184 148 68 C148 68.66 148 69.32 148 70 C149.010625 70.24621094 150.02125 70.49242187 151.0625 70.74609375 C155.08512531 71.90017526 158.47790035 73.84098458 162 76.0625 C163.32151225 76.87516643 164.64312985 77.68766158 165.96484375 78.5 C166.63370605 78.91507812 167.30256836 79.33015625 167.99169922 79.7578125 C171.16517368 81.72069094 174.36272715 83.64288755 177.5625 85.5625 C178.17230713 85.92923828 178.78211426 86.29597656 179.41040039 86.67382812 C185.88113156 90.5526753 192.43329684 94.28662549 199 98 C199 98.66 199 99.32 199 100 C199.78375 100.185625 200.5675 100.37125 201.375 100.5625 C205.63847744 102.25318933 208.88960723 104.63238137 212.5859375 107.3125 C215.30626359 109.21408717 217.97813797 110.64811436 221 112 C221 112.66 221 113.32 221 114 C221.78375 114.185625 222.5675 114.37125 223.375 114.5625 C227.52466915 116.20805846 230.66176752 118.44505024 234.26171875 121.05078125 C239.27921306 124.62243555 244.48273863 128.24136931 250 131 C250 131.66 250 132.32 250 133 C251.07314453 133.37898438 251.07314453 133.37898438 252.16796875 133.765625 C255.24480285 135.10670028 257.62525953 136.74331971 260.3125 138.75 C261.27671875 139.46671875 262.2409375 140.1834375 263.234375 140.921875 C264.14703125 141.60765625 265.0596875 142.2934375 266 143 C267.05960938 143.78117187 267.05960938 143.78117187 268.140625 144.578125 C275.45136247 149.98688199 282.65120022 155.46980594 289 162 C289.825 162.66 290.65 163.32 291.5 164 C294.22996643 166.18397315 296.58077139 168.47080645 299 171 C299.62519531 171.65355469 300.25039063 172.30710937 300.89453125 172.98046875 C310.48058756 183.29195635 319.18586658 194.66555597 326 207 C326.67289063 208.16789062 326.67289063 208.16789062 327.359375 209.359375 C329.89403266 213.80248078 332.08285759 218.24882098 334 223 C334.31839844 223.74894531 334.63679687 224.49789062 334.96484375 225.26953125 C349.5166202 260.13888236 350.57364451 303.95592284 337.80859375 339.60546875 C336.78322614 342.64194385 335.9665185 345.72017298 335.125 348.8125 C332.42654984 358.35454808 328.39987797 367.19551847 324.265625 376.18359375 C322.42710441 380.27486952 320.72032938 384.41793261 319.015625 388.56640625 C318.39037816 390.06459387 317.72601649 391.54796701 317 393 C316.34 393 315.68 393 315 393 C314.88785156 393.71542969 314.77570312 394.43085937 314.66015625 395.16796875 C313.95543995 398.19115998 312.86712202 400.56322688 311.4375 403.3125 C310.98246094 404.19550781 310.52742187 405.07851563 310.05859375 405.98828125 C309.70925781 406.65214844 309.35992188 407.31601562 309 408 C308.34 408 307.68 408 307 408 C306.7525 409.010625 306.505 410.02125 306.25 411.0625 C304.96205064 415.56575555 303.02194446 420.06206985 299.58984375 423.3515625 C296.71420491 426.33318311 294.83694823 430.06194177 292.71875 433.6015625 C291 436 291 436 288 437 C286.89363605 439.39068734 286.89363605 439.39068734 286 442 C285.34 442.99 284.68 443.98 284 445 C283.34 445 282.68 445 282 445 C281.690625 445.61875 281.38125 446.2375 281.0625 446.875 C280.375 448.25 279.6875 449.625 279 451 C278.34 451 277.68 451 277 451 C276.67 451.99 276.34 452.98 276 454 C275.34 454 274.68 454 274 454 C273.7421875 454.58265625 273.484375 455.1653125 273.21875 455.765625 C271.90165983 458.1802903 270.44911616 459.81740177 268.5 461.75 C267.8915625 462.36359375 267.283125 462.9771875 266.65625 463.609375 C265 465 265 465 263 465 C262.78988281 465.556875 262.57976563 466.11375 262.36328125 466.6875 C260.52787334 469.80085668 257.97257395 471.77732913 255.1875 474 C254.66607422 474.42539062 254.14464844 474.85078125 253.60742188 475.2890625 C252.07802797 476.53396241 250.53910939 477.76713189 249 479 C248.11441406 479.72445313 247.22882812 480.44890625 246.31640625 481.1953125 C243.96988274 483.02346404 241.52678204 484.44706844 238.92504883 485.88037109 C236.85295444 487.08552326 234.91624645 488.41948259 232.94921875 489.7890625 C227.87354885 493.1883454 222.57700529 495.88798881 217.0625 498.5 C216.05832031 498.97703369 215.05414062 499.45406738 214.01953125 499.94555664 C205.85205826 503.74879537 197.63026782 506.88499153 188.98779297 509.41650391 C187.15253259 509.95522563 185.32760325 510.52881372 183.50390625 511.10546875 C165.9795948 516.29712061 147.2128242 518.2925096 129 519 C111.18589451 519.85779007 93.39947485 522.04369084 76 526 C74.9584375 526.23589844 73.916875 526.47179687 72.84375 526.71484375 C66.85387327 528.14284271 61.03289835 529.89666093 55.2109375 531.8984375 C52.24148673 532.91715419 49.2598377 533.89148113 46.27368164 534.85986328 C40.00625809 536.9055728 33.96026783 539.17502566 28 542 C26.14637312 542.83453331 24.29217796 543.66780524 22.4375 544.5 C1.39635729 554.10384107 -18.60864342 565.96643474 -37 580 C-38.2285668 580.91747049 -39.45774847 581.83411811 -40.6875 582.75 C-42.12513717 583.83315129 -43.5626182 584.91650984 -45 586 C-45.98097656 586.73089844 -46.96195312 587.46179688 -47.97265625 588.21484375 C-54.7688055 593.32197875 -61.13674653 598.71200519 -67.33984375 604.5234375 C-69.96228867 606.96489136 -72.64155798 609.30368793 -75.40234375 611.5859375 C-77.70457214 613.62360664 -79.83744169 615.81514727 -82 618 C-93 629 -93 629 -95.67578125 631.63671875 C-97.48312106 633.47443402 -99.10978996 635.28401566 -100.6875 637.3125 C-101.450625 638.199375 -102.21375 639.08625 -103 640 C-103.66 640 -104.32 640 -105 640 C-105.2475 640.55171875 -105.495 641.1034375 -105.75 641.671875 C-107.24234474 644.45136707 -109.03672523 646.7814707 -111 649.25 C-111.70125 650.14203125 -112.4025 651.0340625 -113.125 651.953125 C-113.74375 652.62859375 -114.3625 653.3040625 -115 654 C-115.66 654 -116.32 654 -117 654 C-117.39251953 654.86818359 -117.39251953 654.86818359 -117.79296875 655.75390625 C-119.07292739 658.13570631 -120.51356054 659.92316646 -122.3125 661.9375 C-122.93382812 662.63359375 -123.55515625 663.3296875 -124.1953125 664.046875 C-126.398458 666.4312316 -128.70468492 668.70468492 -131 671 C-131.598125 671.78375 -132.19625 672.5675 -132.8125 673.375 C-135.85606568 677.02727881 -139.38384484 679.92598866 -143 683 C-144.08300685 683.94419463 -145.1649625 684.88959583 -146.24609375 685.8359375 C-167.07711063 703.99979738 -194.05856824 722.31771444 -223 722 C-230.71789956 721.41901403 -238.36763677 720.26202851 -246 719 C-246 718.34 -246 717.68 -246 717 C-247.48693359 716.86271484 -247.48693359 716.86271484 -249.00390625 716.72265625 C-253.3856288 716.09669589 -257.00030566 714.38871015 -260.9375 712.4375 C-261.96327148 711.9434668 -261.96327148 711.9434668 -263.00976562 711.43945312 C-264.67731871 710.63482961 -266.33926839 709.8186103 -268 709 C-268 708.34 -268 707.68 -268 707 C-268.721875 706.73832031 -269.44375 706.47664062 -270.1875 706.20703125 C-276.99888388 703.28381233 -283.00573199 698.42234812 -288 693 C-288.74894531 692.25492188 -289.49789062 691.50984375 -290.26953125 690.7421875 C-298.03882997 682.93954415 -305.44540651 674.85710454 -312 666 C-312.54398437 665.28972656 -313.08796875 664.57945312 -313.6484375 663.84765625 C-316.33490611 660.32903761 -318.72354254 656.79988828 -321 653 C-322.08954674 651.40657087 -323.19417618 649.82336592 -324.3125 648.25 C-330.29278778 639.76633594 -335.80129559 631.14515327 -340.9375 622.125 C-341.43926758 621.24521484 -341.43926758 621.24521484 -341.95117188 620.34765625 C-342.45293945 619.46787109 -342.45293945 619.46787109 -342.96484375 618.5703125 C-343.29863037 617.98531982 -343.63241699 617.40032715 -343.97631836 616.79760742 C-344.6770373 615.56712959 -345.37566842 614.33546112 -346.07250977 613.1027832 C-347.65561854 610.3100339 -349.26807574 607.60194814 -351.0625 604.9375 C-352.97839987 602.03274858 -354.45515411 599.11593916 -356 596 C-357.22344694 593.70501971 -358.45281028 591.41388713 -359.6875 589.125 C-365.50528602 578.27039362 -371.13099389 567.31654845 -376 556 C-376.31324219 555.31292969 -376.62648438 554.62585938 -376.94921875 553.91796875 C-379.45438203 548.42245246 -381.64012899 542.83014762 -383.78125 537.18359375 C-384.81651664 534.47929148 -385.89557486 531.80144963 -387 529.125 C-389.17376821 523.73898323 -390.95885218 518.23146444 -392.75390625 512.7109375 C-393.60487104 510.17671635 -394.49051279 507.7152243 -395.4609375 505.23046875 C-397.35633946 500.23333495 -398.69425413 495.09904134 -400.0625 489.9375 C-400.57386769 488.02985378 -401.08557874 486.12229956 -401.59765625 484.21484375 C-401.95839233 482.86314087 -401.95839233 482.86314087 -402.32641602 481.48413086 C-402.89168065 479.39947421 -403.48896831 477.32353721 -404.09375 475.25 C-405.03586904 471.87136619 -405.76431443 468.50449402 -406.4375 465.0625 C-406.56310303 464.42135254 -406.68870605 463.78020508 -406.81811523 463.11962891 C-407.21581549 461.08045729 -407.60828021 459.04032813 -408 457 C-408.13051758 456.32662598 -408.26103516 455.65325195 -408.39550781 454.95947266 C-411.89780252 436.86138649 -414.61350828 418.73031382 -415.625 400.3125 C-415.6650415 399.60206543 -415.70508301 398.89163086 -415.74633789 398.15966797 C-415.86198477 395.77321011 -415.93648131 393.3884345 -416 391 C-416.03424072 389.93177002 -416.06848145 388.86354004 -416.10375977 387.76293945 C-416.27557719 378.04904844 -415.34214807 368.68379864 -414.02856445 359.07250977 C-413.68483249 356.54286888 -413.36207106 354.01112378 -413.04101562 351.47851562 C-412.82415331 349.84098159 -412.60609725 348.2036051 -412.38671875 346.56640625 C-412.29283371 345.82354874 -412.19894867 345.08069122 -412.10221863 344.31532288 C-411.38256187 339.18672987 -409.92623894 334.80842536 -408 330 C-407.35081329 327.71506724 -406.72481034 325.42338828 -406.125 323.125 C-404.38702426 316.93675306 -402.03815609 311.63343229 -399 306 C-398.06125024 304.04226545 -397.12381393 302.08390069 -396.1875 300.125 C-392.99207961 293.70925984 -389.0838026 287.87736455 -385 282 C-384.34 281.01 -383.68 280.02 -383 279 C-382.34 279 -381.68 279 -381 279 C-380.773125 278.278125 -380.54625 277.55625 -380.3125 276.8125 C-378.73594914 273.43417673 -376.69013425 271.56203262 -374 269 C-373.34 268.154375 -372.68 267.30875 -372 266.4375 C-369.89320052 263.86983814 -367.59872509 262.05162507 -365 260 C-364.34 259.01 -363.68 258.02 -363 257 C-361.33333333 256 -359.66666667 255 -358 254 C-357.01 253.13375 -356.02 252.2675 -355 251.375 C-345.22347667 242.84429713 -333.6399175 235.70743053 -321.9921875 230.01953125 C-319.12100027 228.55015896 -316.4247017 226.82972021 -313.6875 225.125 C-309.17258847 222.32457201 -304.63057031 219.6046958 -300 217 C-297.34728346 215.48416197 -294.99443361 213.99545899 -292.625 212.0625 C-290 210 -290 210 -286.734375 208.171875 C-283.12867743 206.13937594 -279.8677608 203.75222449 -276.625 201.1875 C-276.06192139 200.74736572 -275.49884277 200.30723145 -274.91870117 199.85375977 C-273.79303523 198.97374621 -272.6685682 198.09219652 -271.54541016 197.20898438 C-270.20985087 196.16416769 -268.86188459 195.13524669 -267.51171875 194.109375 C-262.58558779 190.3644655 -257.97357678 186.35725339 -253.40234375 182.1875 C-251.29012318 180.2641772 -249.15592706 178.37396477 -247 176.5 C-246.360625 175.94054687 -245.72125 175.38109375 -245.0625 174.8046875 C-243.56507822 173.49444344 -242.06468394 172.18759406 -240.5625 170.8828125 C-235.50061586 166.42279873 -230.91752443 161.83555695 -226.59375 156.65234375 C-226.0678125 156.10707031 -225.541875 155.56179688 -225 155 C-224.34 155 -223.68 155 -223 155 C-222.67 154.01 -222.34 153.02 -222 152 C-221.34 152 -220.68 152 -220 152 C-219.73703125 151.41863281 -219.4740625 150.83726562 -219.203125 150.23828125 C-217.94085206 147.88996178 -216.53551439 146.16202155 -214.75 144.1875 C-214.12222656 143.48367188 -213.49445313 142.77984375 -212.84765625 142.0546875 C-212.23792969 141.37664062 -211.62820313 140.69859375 -211 140 C-207.08108813 135.60317205 -203.41687359 131.03078493 -199.8125 126.375 C-199.38412842 125.82432861 -198.95575684 125.27365723 -198.5144043 124.70629883 C-196.66366561 122.29732595 -194.94110934 119.90104088 -193.38671875 117.2890625 C-192 115 -192 115 -190.53515625 113.54296875 C-187.61779229 110.61075815 -185.74700175 106.82567386 -183.62109375 103.30078125 C-183.08613281 102.54152344 -182.55117188 101.78226562 -182 101 C-181.34 101 -180.68 101 -180 101 C-179.814375 100.21625 -179.62875 99.4325 -179.4375 98.625 C-177.78135023 94.44862233 -175.50345593 91.2919129 -172.8828125 87.66796875 C-169.43338628 82.78008886 -165.89976961 77.69930882 -164 72 C-163.34 72 -162.68 72 -162 72 C-161.61134766 70.68708984 -161.61134766 70.68708984 -161.21484375 69.34765625 C-159.99808795 65.9947311 -158.52520339 63.40476986 -156.5625 60.4375 C-154.76751625 57.7043174 -153.00605467 55.01076221 -151.40234375 52.16015625 C-150.70818359 51.09087891 -150.70818359 51.09087891 -150 50 C-149.34 50 -148.68 50 -148 50 C-147.75765625 49.27554688 -147.5153125 48.55109375 -147.265625 47.8046875 C-145.83548179 44.63541953 -144.12605443 42.65460897 -141.75 40.125 C-139.02606832 37.18716983 -136.32741797 34.25489586 -133.75 31.1875 C-126.98733298 23.26393919 -119.33113329 15.75887798 -110 11 C-108.12300383 9.98284167 -106.24815067 8.96172276 -104.375 7.9375 C-103.02535156 7.20853516 -103.02535156 7.20853516 -101.6484375 6.46484375 C-99.92722275 5.51284444 -98.22926664 4.5170565 -96.5625 3.47265625 C-86.98075477 -2.03392599 -75.77547841 -4.21655855 -65 -6 C-63.8553125 -6.19916016 -63.8553125 -6.19916016 -62.6875 -6.40234375 C-41.96775783 -9.35652574 -19.8505615 -6.06817907 0 0 Z " fill="#08BDBA" transform="translate(490,164)"/>
</svg>
